<?xml version="1.0" standalone="yes"?>
<svg xmlns="http://www.w3.org/2000/svg" width="3258" height="3258">
<path style="fill:#ffffff; stroke:none;" d="M0 0L0 3258L1024 3258L1024 3072L629 3072L629 0L0 0z"/>
<path style="fill:#131313; stroke:none;" d="M629 0L629 1657L630 1657L656.8 1612L711.6 1521L884.6 1234L1397.4 383L1543.2 141L1628 0L629 0z"/>
<path style="fill:#6e6e6e; stroke:none;" d="M1628 0L1628 1204L1629 1204L1629 349L1629 102L1629 31L1628 0z"/>
<path style="fill:#484847; stroke:none;" d="M1629 0L1629 874L1629 1112L1629 1177L1627.97 1202.87L1609 1213.26L1558 1236.42L1369 1322.31L885 1542.31L720 1617.31L630 1658L630 1660L642 1668C648.967 1669.2 659.109 1675.96 664 1681C671.007 1682.1 681.105 1688.95 686 1694L712 1708.28L747.015 1729.33L779 1749C785.826 1750.07 796.218 1757.07 801 1762C808.007 1763.1 818.105 1769.95 823 1775C830.007 1776.1 840.105 1782.95 845 1788C852.007 1789.1 862.105 1795.95 867 1801C873.826 1802.07 884.218 1809.07 889 1814L914 1827.72L951.004 1849.87L982 1869C989.007 1870.1 999.105 1876.95 1004 1882C1011.01 1883.1 1021.11 1889.95 1026 1895C1033.01 1896.1 1043.11 1902.95 1048 1908C1055.01 1909.1 1065.11 1915.95 1070 1921C1076.83 1922.07 1087.22 1929.07 1092 1934L1117 1947.72L1159 1972.59L1185 1989C1192.01 1990.1 1202.11 1996.95 1207 2002C1214.01 2003.1 1224.11 2009.95 1229 2015C1236.01 2016.1 1246.11 2022.95 1251 2028C1258.01 2029.1 1268.11 2035.95 1273 2041C1279.83 2042.07 1290.22 2049.07 1295 2054C1302.16 2055.13 1309.77 2061.71 1316 2065.4C1331.55 2074.59 1353.43 2083.04 1366 2096C1372.83 2097.07 1383.22 2104.07 1388 2109C1395.01 2110.1 1405.1 2116.95 1410 2122C1417.01 2123.1 1427.11 2129.95 1432 2135C1439.01 2136.1 1449.11 2142.95 1454 2148C1461.01 2149.1 1471.11 2155.95 1476 2161L1501 2174.72L1544 2200.15L1569 2216C1576.01 2217.1 1586.11 2223.95 1591 2229C1598.01 2230.1 1608.11 2236.95 1613 2242L1629 2250L1629 1205C1657.61 1213.24 1685.91 1230.29 1713 1242.69C1771.59 1269.52 1830.41 1295.86 1889 1322.69C2063.1 1402.41 2237.9 1480.59 2412 1560.31C2459.61 1582.11 2507.39 1603.51 2555 1625.31C2578.56 1636.1 2603.11 1650.83 2628 1658C2623.77 1646.45 2615.33 1635.54 2609 1625C2595.77 1602.95 2582.05 1581.16 2569.01 1559C2524.6 1483.54 2478.5 1409.08 2433.45 1334C2300.89 1113.07 2167.01 892.929 2034.45 672C1943.74 520.825 1852.16 370.175 1761.45 219C1731.21 168.61 1700.68 118.389 1670.45 68C1657.57 46.5281 1646.12 18.229 1629 0z"/>
<path style="fill:#131313; stroke:none;" d="M1630 0L1658.58 49L1723.8 157L1913 471L2388.2 1260L2554.6 1536L2628 1658L2380 1545.31L1934 1342.69L1725 1247.69L1660 1218.14L1629 1205L1629 2250L1534 2194.2L1374 2099.6L893 1815.4L714 1709.58L660 1677.6L629 1660L629 1799L629 1834C629 1838.17 627.707 1844.98 630.603 1848.39C635.004 1853.57 644.19 1856.91 650 1860.4C665.608 1869.76 681.383 1878.85 697 1888.2C749.79 1919.81 802.945 1950.85 856 1982.01C1031.91 2085.34 1208.04 2188.48 1383 2293.4C1442.11 2328.84 1501.9 2363.14 1561 2398.6C1576.94 2408.17 1593.06 2417.44 1609 2427C1614.17 2430.1 1622.79 2437.52 1629 2437.33C1635.58 2437.14 1644.46 2429.52 1650 2426.2C1666.29 2416.45 1682.72 2406.97 1699 2397.2C1756.74 2362.56 1814.76 2328.23 1873 2294.42C2048.76 2192.42 2222.23 2086.44 2398 1984.42C2452.22 1952.96 2506.25 1921.05 2560 1888.8C2575.6 1879.44 2591.31 1870.23 2607 1861.01C2613.19 1857.37 2622.71 1853.91 2627.4 1848.39C2632.4 1842.49 2629 1823.54 2629 1816L2629 1726L2629 1375L2629 0L1630 0z"/>
<path style="fill:#ffffff; stroke:none;" d="M2629 0L2629 3072L2048 3072L2048 3258L3258 3258L3258 0L2629 0z"/>
<path style="fill:#8d8d8d; stroke:none;" d="M1627 1L960.6 1107L734.6 1482L663.4 1600L629 1658C656.252 1650.55 683.304 1634.07 709 1622.31C760.269 1598.83 811.731 1575.78 863 1552.31C1028.09 1476.72 1193.13 1400.73 1359 1326.86C1424.52 1297.68 1490.06 1268.22 1555 1237.78C1572.23 1229.7 1589.77 1222.3 1607 1214.22C1612.35 1211.71 1623.41 1209.11 1626.97 1204.3C1630.08 1200.1 1628 1189.05 1628 1184L1628 1129L1628 920L1628 268L1628 80L1628 26C1628 18.52 1629.9 7.9187 1627 1z"/>
<path style="fill:#ffffff; stroke:none;" d="M1588 65L1589 66L1588 65M1585 70L1586 71L1585 70M1544 138L1545 139L1544 138M1541 143L1542 144L1541 143M1500 211L1501 212L1500 211M1497 216L1498 217L1497 216M1494 221L1495 222L1494 221M1453 289L1454 290L1453 289M1450 294L1451 295L1450 294M1409 362L1410 363L1409 362M1406 367L1407 368L1406 367M1403 372L1404 373L1403 372M1362 440L1363 441L1362 440M1359 445L1360 446L1359 445M1318 513L1319 514L1318 513M1315 518L1316 519L1315 518M1312 523L1313 524L1312 523M1271 591L1272 592L1271 591M1268 596L1269 597L1268 596M1227 664L1228 665L1227 664M1224 669L1225 670L1224 669M1180 742L1181 743L1180 742M1177 747L1178 748L1177 747M1136 815L1137 816L1136 815M1133 820L1134 821L1133 820M1089 893L1090 894L1089 893M1086 898L1087 899L1086 898M1045 966L1046 967L1045 966M1042 971L1043 972L1042 971M998 1044L999 1045L998 1044M995 1049L996 1050L995 1049M954 1117L955 1118L954 1117M951 1122L952 1123L951 1122M907 1195L908 1196L907 1195M904 1200L905 1201L904 1200z"/>
<path style="fill:#6e6e6e; stroke:none;" d="M1626 1205L1627 1206L1626 1205M1623 1206L1624 1207L1623 1206M1621 1207L1622 1208L1621 1207M1619 1208L1620 1209L1619 1208M1617 1209L1618 1210L1617 1209M1615 1210L1616 1211L1615 1210M1612 1211L1613 1212L1612 1211M1610 1212L1611 1213L1610 1212M1608 1213L1609 1214L1608 1213M1606 1214L1607 1215L1606 1214M1604 1215L1605 1216L1604 1215M1601 1216L1602 1217L1601 1216M1599 1217L1600 1218L1599 1217M1597 1218L1598 1219L1597 1218M1595 1219L1596 1220L1595 1219M1593 1220L1594 1221L1593 1220M1590 1221L1591 1222L1590 1221M1588 1222L1589 1223L1588 1222M1586 1223L1587 1224L1586 1223M1584 1224L1585 1225L1584 1224M1582 1225L1583 1226L1582 1225M1579 1226L1580 1227L1579 1226M1577 1227L1578 1228L1577 1227M1575 1228L1576 1229L1575 1228M1573 1229L1574 1230L1573 1229M1571 1230L1572 1231L1571 1230M1568 1231L1569 1232L1568 1231M1566 1232L1567 1233L1566 1232M1564 1233L1565 1234L1564 1233M1562 1234L1563 1235L1562 1234M1560 1235L1561 1236L1560 1235M1557 1236L1558 1237L1557 1236M1555 1237L1556 1238L1555 1237M1553 1238L1554 1239L1553 1238M1551 1239L1552 1240L1551 1239M1549 1240L1550 1241L1549 1240M1546 1241L1547 1242L1546 1241M1544 1242L1545 1243L1544 1242M1542 1243L1543 1244L1542 1243M1540 1244L1541 1245L1540 1244M1538 1245L1539 1246L1538 1245M1535 1246L1536 1247L1535 1246M1533 1247L1534 1248L1533 1247M1531 1248L1532 1249L1531 1248M1529 1249L1530 1250L1529 1249M1527 1250L1528 1251L1527 1250M1524 1251L1525 1252L1524 1251M1522 1252L1523 1253L1522 1252M1520 1253L1521 1254L1520 1253M1518 1254L1519 1255L1518 1254M1516 1255L1517 1256L1516 1255M1513 1256L1514 1257L1513 1256M1511 1257L1512 1258L1511 1257M1509 1258L1510 1259L1509 1258M1507 1259L1508 1260L1507 1259M1505 1260L1506 1261L1505 1260M1502 1261L1503 1262L1502 1261M1500 1262L1501 1263L1500 1262M1498 1263L1499 1264L1498 1263M1496 1264L1497 1265L1496 1264M1494 1265L1495 1266L1494 1265M1491 1266L1492 1267L1491 1266M1489 1267L1490 1268L1489 1267z"/>
<path style="fill:#ffffff; stroke:none;" d="M863 1268L864 1269L863 1268z"/>
<path style="fill:#6e6e6e; stroke:none;" d="M1487 1268L1488 1269L1487 1268M1485 1269L1486 1270L1485 1269M1483 1270L1484 1271L1483 1270M1480 1271L1481 1272L1480 1271M1478 1272L1479 1273L1478 1272z"/>
<path style="fill:#ffffff; stroke:none;" d="M860 1273L861 1274L860 1273z"/>
<path style="fill:#6e6e6e; stroke:none;" d="M1476 1273L1477 1274L1476 1273M1474 1274L1475 1275L1474 1274M1472 1275L1473 1276L1472 1275M1469 1276L1470 1277L1469 1276M1467 1277L1468 1278L1467 1277M1465 1278L1466 1279L1465 1278M1463 1279L1464 1280L1463 1279M1461 1280L1462 1281L1461 1280M1458 1281L1459 1282L1458 1281M1456 1282L1457 1283L1456 1282M1454 1283L1455 1284L1454 1283M1452 1284L1453 1285L1452 1284M1450 1285L1451 1286L1450 1285M1447 1286L1448 1287L1447 1286M1445 1287L1446 1288L1445 1287M1443 1288L1444 1289L1443 1288M1441 1289L1442 1290L1441 1289M1439 1290L1440 1291L1439 1290M1436 1291L1437 1292L1436 1291M1434 1292L1435 1293L1434 1292M1432 1293L1433 1294L1432 1293M1430 1294L1431 1295L1430 1294M1428 1295L1429 1296L1428 1295M1425 1296L1426 1297L1425 1296M1423 1297L1424 1298L1423 1297M1421 1298L1422 1299L1421 1298M1419 1299L1420 1300L1419 1299M1417 1300L1418 1301L1417 1300M1414 1301L1415 1302L1414 1301M1412 1302L1413 1303L1412 1302M1410 1303L1411 1304L1410 1303M1408 1304L1409 1305L1408 1304M1406 1305L1407 1306L1406 1305M1403 1306L1404 1307L1403 1306M1401 1307L1402 1308L1401 1307M1399 1308L1400 1309L1399 1308M1397 1309L1398 1310L1397 1309M1395 1310L1396 1311L1395 1310M1392 1311L1393 1312L1392 1311M1390 1312L1391 1313L1390 1312M1388 1313L1389 1314L1388 1313M1386 1314L1387 1315L1386 1314M1384 1315L1385 1316L1384 1315M1381 1316L1382 1317L1381 1316M1379 1317L1380 1318L1379 1317M1377 1318L1378 1319L1377 1318M1375 1319L1376 1320L1375 1319M1373 1320L1374 1321L1373 1320M1370 1321L1371 1322L1370 1321M1368 1322L1369 1323L1368 1322M1366 1323L1367 1324L1366 1323M1364 1324L1365 1325L1364 1324M1362 1325L1363 1326L1362 1325M1359 1326L1360 1327L1359 1326M1357 1327L1358 1328L1357 1327M1355 1328L1356 1329L1355 1328M1353 1329L1354 1330L1353 1329M1351 1330L1352 1331L1351 1330M1348 1331L1349 1332L1348 1331M1346 1332L1347 1333L1346 1332M1344 1333L1345 1334L1344 1333M1342 1334L1343 1335L1342 1334M1340 1335L1341 1336L1340 1335M1337 1336L1338 1337L1337 1336M1335 1337L1336 1338L1335 1337M1333 1338L1334 1339L1333 1338M1331 1339L1332 1340L1331 1339M1329 1340L1330 1341L1329 1340M1326 1341L1327 1342L1326 1341M1324 1342L1325 1343L1324 1342M1322 1343L1323 1344L1322 1343M1320 1344L1321 1345L1320 1344M1318 1345L1319 1346L1318 1345z"/>
<path style="fill:#ffffff; stroke:none;" d="M816 1346L817 1347L816 1346z"/>
<path style="fill:#6e6e6e; stroke:none;" d="M1315 1346L1316 1347L1315 1346M1313 1347L1314 1348L1313 1347M1311 1348L1312 1349L1311 1348M1309 1349L1310 1350L1309 1349M1307 1350L1308 1351L1307 1350z"/>
<path style="fill:#ffffff; stroke:none;" d="M813 1351L814 1352L813 1351z"/>
<path style="fill:#6e6e6e; stroke:none;" d="M1304 1351L1305 1352L1304 1351M1302 1352L1303 1353L1302 1352M1300 1353L1301 1354L1300 1353M1298 1354L1299 1355L1298 1354M1296 1355L1297 1356L1296 1355M1293 1356L1294 1357L1293 1356M1291 1357L1292 1358L1291 1357M1289 1358L1290 1359L1289 1358M1287 1359L1288 1360L1287 1359M1285 1360L1286 1361L1285 1360M1282 1361L1283 1362L1282 1361M1280 1362L1281 1363L1280 1362M1278 1363L1279 1364L1278 1363M1276 1364L1277 1365L1276 1364M1274 1365L1275 1366L1274 1365M1271 1366L1272 1367L1271 1366M1269 1367L1270 1368L1269 1367M1267 1368L1268 1369L1267 1368M1265 1369L1266 1370L1265 1369M1263 1370L1264 1371L1263 1370M1260 1371L1261 1372L1260 1371M1258 1372L1259 1373L1258 1372M1256 1373L1257 1374L1256 1373M1254 1374L1255 1375L1254 1374M1252 1375L1253 1376L1252 1375M1249 1376L1250 1377L1249 1376M1247 1377L1248 1378L1247 1377M1245 1378L1246 1379L1245 1378M1243 1379L1244 1380L1243 1379M1241 1380L1242 1381L1241 1380M1238 1381L1239 1382L1238 1381M1236 1382L1237 1383L1236 1382M1234 1383L1235 1384L1234 1383M1232 1384L1233 1385L1232 1384M1230 1385L1231 1386L1230 1385M1227 1386L1228 1387L1227 1386M1225 1387L1226 1388L1225 1387M1223 1388L1224 1389L1223 1388M1221 1389L1222 1390L1221 1389M1219 1390L1220 1391L1219 1390M1216 1391L1217 1392L1216 1391M1214 1392L1215 1393L1214 1392M1212 1393L1213 1394L1212 1393M1210 1394L1211 1395L1210 1394M1208 1395L1209 1396L1208 1395M1205 1396L1206 1397L1205 1396M1203 1397L1204 1398L1203 1397M1201 1398L1202 1399L1201 1398M1199 1399L1200 1400L1199 1399M1197 1400L1198 1401L1197 1400M1194 1401L1195 1402L1194 1401M1192 1402L1193 1403L1192 1402M1190 1403L1191 1404L1190 1403M1188 1404L1189 1405L1188 1404M1186 1405L1187 1406L1186 1405M1183 1406L1184 1407L1183 1406M1181 1407L1182 1408L1181 1407M1179 1408L1180 1409L1179 1408M1177 1409L1178 1410L1177 1409M1175 1410L1176 1411L1175 1410M1172 1411L1173 1412L1172 1411M1170 1412L1171 1413L1170 1412M1168 1413L1169 1414L1168 1413M1166 1414L1167 1415L1166 1414M1164 1415L1165 1416L1164 1415M1161 1416L1162 1417L1161 1416M1159 1417L1160 1418L1159 1417M1157 1418L1158 1419L1157 1418z"/>
<path style="fill:#ffffff; stroke:none;" d="M772 1419L773 1420L772 1419z"/>
<path style="fill:#6e6e6e; stroke:none;" d="M1155 1419L1156 1420L1155 1419M1153 1420L1154 1421L1153 1420M1150 1421L1151 1422L1150 1421M1148 1422L1149 1423L1148 1422M1146 1423L1147 1424L1146 1423z"/>
<path style="fill:#ffffff; stroke:none;" d="M769 1424L770 1425L769 1424z"/>
<path style="fill:#6e6e6e; stroke:none;" d="M1144 1424L1145 1425L1144 1424M1142 1425L1143 1426L1142 1425M1139 1426L1140 1427L1139 1426M1137 1427L1138 1428L1137 1427M1135 1428L1136 1429L1135 1428M1133 1429L1134 1430L1133 1429M1131 1430L1132 1431L1131 1430M1128 1431L1129 1432L1128 1431M1126 1432L1127 1433L1126 1432M1124 1433L1125 1434L1124 1433M1122 1434L1123 1435L1122 1434M1120 1435L1121 1436L1120 1435M1117 1436L1118 1437L1117 1436M1115 1437L1116 1438L1115 1437M1113 1438L1114 1439L1113 1438M1111 1439L1112 1440L1111 1439M1109 1440L1110 1441L1109 1440M1106 1441L1107 1442L1106 1441M1104 1442L1105 1443L1104 1442M1102 1443L1103 1444L1102 1443M1100 1444L1101 1445L1100 1444M1098 1445L1099 1446L1098 1445M1095 1446L1096 1447L1095 1446M1093 1447L1094 1448L1093 1447M1091 1448L1092 1449L1091 1448M1089 1449L1090 1450L1089 1449M1087 1450L1088 1451L1087 1450M1084 1451L1085 1452L1084 1451M1082 1452L1083 1453L1082 1452M1080 1453L1081 1454L1080 1453M1078 1454L1079 1455L1078 1454M1076 1455L1077 1456L1076 1455M1073 1456L1074 1457L1073 1456M1071 1457L1072 1458L1071 1457M1069 1458L1070 1459L1069 1458M1067 1459L1068 1460L1067 1459M1065 1460L1066 1461L1065 1460M1062 1461L1063 1462L1062 1461M1060 1462L1061 1463L1060 1462M1058 1463L1059 1464L1058 1463M1056 1464L1057 1465L1056 1464M1054 1465L1055 1466L1054 1465M1051 1466L1052 1467L1051 1466M1049 1467L1050 1468L1049 1467M1047 1468L1048 1469L1047 1468M1045 1469L1046 1470L1045 1469M1043 1470L1044 1471L1043 1470M1040 1471L1041 1472L1040 1471M1038 1472L1039 1473L1038 1472M1036 1473L1037 1474L1036 1473M1034 1474L1035 1475L1034 1474M1032 1475L1033 1476L1032 1475M1029 1476L1030 1477L1029 1476M1027 1477L1028 1478L1027 1477M1025 1478L1026 1479L1025 1478M1023 1479L1024 1480L1023 1479M1021 1480L1022 1481L1021 1480M1018 1481L1019 1482L1018 1481M1016 1482L1017 1483L1016 1482M1014 1483L1015 1484L1014 1483M1012 1484L1013 1485L1012 1484M1010 1485L1011 1486L1010 1485M1007 1486L1008 1487L1007 1486M1005 1487L1006 1488L1005 1487M1003 1488L1004 1489L1003 1488M1001 1489L1002 1490L1001 1489M999 1490L1000 1491L999 1490M996 1491L997 1492L996 1491M994 1492L995 1493L994 1492M992 1493L993 1494L992 1493M990 1494L991 1495L990 1494M988 1495L989 1496L988 1495M985 1496L986 1497L985 1496z"/>
<path style="fill:#ffffff; stroke:none;" d="M725 1497L726 1498L725 1497z"/>
<path style="fill:#6e6e6e; stroke:none;" d="M983 1497L984 1498L983 1497M981 1498L982 1499L981 1498M979 1499L980 1500L979 1499M977 1500L978 1501L977 1500M974 1501L975 1502L974 1501z"/>
<path style="fill:#ffffff; stroke:none;" d="M722 1502L723 1503L722 1502z"/>
<path style="fill:#6e6e6e; stroke:none;" d="M972 1502L973 1503L972 1502M970 1503L971 1504L970 1503M968 1504L969 1505L968 1504M966 1505L967 1506L966 1505M963 1506L964 1507L963 1506M961 1507L962 1508L961 1507M959 1508L960 1509L959 1508M957 1509L958 1510L957 1509M955 1510L956 1511L955 1510M952 1511L953 1512L952 1511M950 1512L951 1513L950 1512M948 1513L949 1514L948 1513M946 1514L947 1515L946 1514M944 1515L945 1516L944 1515M941 1516L942 1517L941 1516M939 1517L940 1518L939 1517M937 1518L938 1519L937 1518M935 1519L936 1520L935 1519M933 1520L934 1521L933 1520M930 1521L931 1522L930 1521M928 1522L929 1523L928 1522M926 1523L927 1524L926 1523M924 1524L925 1525L924 1524M922 1525L923 1526L922 1525M919 1526L920 1527L919 1526M917 1527L918 1528L917 1527M915 1528L916 1529L915 1528M913 1529L914 1530L913 1529M911 1530L912 1531L911 1530M908 1531L909 1532L908 1531M906 1532L907 1533L906 1532M904 1533L905 1534L904 1533M902 1534L903 1535L902 1534M900 1535L901 1536L900 1535M897 1536L898 1537L897 1536M895 1537L896 1538L895 1537M893 1538L894 1539L893 1538M891 1539L892 1540L891 1539M889 1540L890 1541L889 1540M886 1541L887 1542L886 1541M884 1542L885 1543L884 1542M882 1543L883 1544L882 1543M880 1544L881 1545L880 1544M878 1545L879 1546L878 1545M875 1546L876 1547L875 1546M873 1547L874 1548L873 1547M871 1548L872 1549L871 1548M869 1549L870 1550L869 1549M867 1550L868 1551L867 1550M864 1551L865 1552L864 1551M862 1552L863 1553L862 1552M860 1553L861 1554L860 1553M858 1554L859 1555L858 1554M856 1555L857 1556L856 1555M853 1556L854 1557L853 1556M851 1557L852 1558L851 1557M849 1558L850 1559L849 1558M847 1559L848 1560L847 1559M845 1560L846 1561L845 1560M842 1561L843 1562L842 1561M840 1562L841 1563L840 1562M838 1563L839 1564L838 1563M836 1564L837 1565L836 1564M834 1565L835 1566L834 1565M831 1566L832 1567L831 1566M829 1567L830 1568L829 1567M827 1568L828 1569L827 1568M825 1569L826 1570L825 1569z"/>
<path style="fill:#ffffff; stroke:none;" d="M681 1570L682 1571L681 1570z"/>
<path style="fill:#6e6e6e; stroke:none;" d="M823 1570L824 1571L823 1570M820 1571L821 1572L820 1571M818 1572L819 1573L818 1572M816 1573L817 1574L816 1573M814 1574L815 1575L814 1574z"/>
<path style="fill:#ffffff; stroke:none;" d="M678 1575L679 1576L678 1575z"/>
<path style="fill:#6e6e6e; stroke:none;" d="M812 1575L813 1576L812 1575M809 1576L810 1577L809 1576M807 1577L808 1578L807 1577M805 1578L806 1579L805 1578M803 1579L804 1580L803 1579M801 1580L802 1581L801 1580M798 1581L799 1582L798 1581M796 1582L797 1583L796 1582M794 1583L795 1584L794 1583M792 1584L793 1585L792 1584M790 1585L791 1586L790 1585M787 1586L788 1587L787 1586M785 1587L786 1588L785 1587M783 1588L784 1589L783 1588M781 1589L782 1590L781 1589M779 1590L780 1591L779 1590M776 1591L777 1592L776 1591M774 1592L775 1593L774 1592M772 1593L773 1594L772 1593M770 1594L771 1595L770 1594M768 1595L769 1596L768 1595M765 1596L766 1597L765 1596M763 1597L764 1598L763 1597M761 1598L762 1599L761 1598M759 1599L760 1600L759 1599M757 1600L758 1601L757 1600M754 1601L755 1602L754 1601M752 1602L753 1603L752 1602M750 1603L751 1604L750 1603M748 1604L749 1605L748 1604M746 1605L747 1606L746 1605M743 1606L744 1607L743 1606M741 1607L742 1608L741 1607M739 1608L740 1609L739 1608M737 1609L738 1610L737 1609M735 1610L736 1611L735 1610M732 1611L733 1612L732 1611M730 1612L731 1613L730 1612M728 1613L729 1614L728 1613M726 1614L727 1615L726 1614M724 1615L725 1616L724 1615M721 1616L722 1617L721 1616M719 1617L720 1618L719 1617M717 1618L718 1619L717 1618M715 1619L716 1620L715 1619M713 1620L714 1621L713 1620M710 1621L711 1622L710 1621M708 1622L709 1623L708 1622M706 1623L707 1624L706 1623M704 1624L705 1625L704 1624M702 1625L703 1626L702 1625M699 1626L700 1627L699 1626M697 1627L698 1628L697 1627M695 1628L696 1629L695 1628M693 1629L694 1630L693 1629M691 1630L692 1631L691 1630M688 1631L689 1632L688 1631M686 1632L687 1633L686 1632M684 1633L685 1634L684 1633M682 1634L683 1635L682 1634M680 1635L681 1636L680 1635M677 1636L678 1637L677 1636M675 1637L676 1638L675 1637M673 1638L674 1639L673 1638M671 1639L672 1640L671 1639M669 1640L670 1641L669 1640M666 1641L667 1642L666 1641M664 1642L665 1643L664 1642M662 1643L663 1644L662 1643M660 1644L661 1645L660 1644M658 1645L659 1646L658 1645M655 1646L656 1647L655 1646M653 1647L654 1648L653 1647z"/>
<path style="fill:#ffffff; stroke:none;" d="M634 1648L635 1649L634 1648z"/>
<path style="fill:#6e6e6e; stroke:none;" d="M651 1648L652 1649L651 1648M649 1649L650 1650L649 1649M647 1650L648 1651L647 1650M644 1651L645 1652L644 1651M642 1652L643 1653L642 1652z"/>
<path style="fill:#ffffff; stroke:none;" d="M631 1653L632 1654L631 1653z"/>
<path style="fill:#6e6e6e; stroke:none;" d="M640 1653L641 1654L640 1653M638 1654L639 1655L638 1654M636 1655L637 1656L636 1655M633 1656L634 1657L633 1656M631 1657L632 1658L631 1657M629.333 1658.67L629.667 1659.33L629.333 1658.67M631 1660L632 1661L631 1660M632 1661L633 1662L632 1661M634 1662L635 1663L634 1662M636 1663L637 1664L636 1663M637 1664L638 1665L637 1664M639 1665L640 1666L639 1665M641 1666L642 1667L641 1666M643 1667L644 1668L643 1667M644 1668L645 1669L644 1668M646 1669L647 1670L646 1669z"/>
<path style="fill:#8d8d8d; stroke:none;" d="M647 1670L648 1671L647 1670z"/>
<path style="fill:#6e6e6e; stroke:none;" d="M649 1671L650 1672L649 1671M651 1672L652 1673L651 1672M653 1673L654 1674L653 1673M654 1674L655 1675L654 1674M656 1675L657 1676L656 1675M658 1676L659 1677L658 1676M659 1677L660 1678L659 1677M661 1678L662 1679L661 1678M663 1679L664 1680L663 1679z"/>
<path style="fill:#484847; stroke:none;" d="M2594 1679L2595 1680L2594 1679z"/>
<path style="fill:#6e6e6e; stroke:none;" d="M665 1680L666 1681L665 1680M666 1681L667 1682L666 1681M668 1682L669 1683L668 1682z"/>
<path style="fill:#8d8d8d; stroke:none;" d="M669 1683L670 1684L669 1683z"/>
<path style="fill:#6e6e6e; stroke:none;" d="M670 1683L671 1684L670 1683M671 1684L672 1685L671 1684M673 1685L674 1686L673 1685M675 1686L676 1687L675 1686M676 1687L677 1688L676 1687M678 1688L679 1689L678 1688M680 1689L681 1690L680 1689M681 1690L682 1691L681 1690M683 1691L684 1692L683 1691M685 1692L686 1693L685 1692z"/>
<path style="fill:#484847; stroke:none;" d="M2572 1692L2573 1693L2572 1692z"/>
<path style="fill:#6e6e6e; stroke:none;" d="M687 1693L688 1694L687 1693M688 1694L689 1695L688 1694M690 1695L691 1696L690 1695z"/>
<path style="fill:#8d8d8d; stroke:none;" d="M691 1696L692 1697L691 1696z"/>
<path style="fill:#6e6e6e; stroke:none;" d="M692 1696L693 1697L692 1696M693 1697L694 1698L693 1697M695 1698L696 1699L695 1698M697 1699L698 1700L697 1699M700 1701L701 1702L700 1701M702 1702L703 1703L702 1702M703 1703L704 1704L703 1703M705 1704L706 1705L705 1704M707 1705L708 1706L707 1705z"/>
<path style="fill:#484847; stroke:none;" d="M2550 1705L2551 1706L2550 1705z"/>
<path style="fill:#6e6e6e; stroke:none;" d="M708 1706L709 1707L708 1706M710 1707L711 1708L710 1707M712 1708L713 1709L712 1708z"/>
<path style="fill:#8d8d8d; stroke:none;" d="M713 1709L714 1710L713 1709z"/>
<path style="fill:#6e6e6e; stroke:none;" d="M714 1709L715 1710L714 1709M715 1710L716 1711L715 1710M717 1711L718 1712L717 1711M719 1712L720 1713L719 1712M722 1714L723 1715L722 1714M724 1715L725 1716L724 1715M725 1716L726 1717L725 1716M727 1717L728 1718L727 1717M729 1718L730 1719L729 1718z"/>
<path style="fill:#484847; stroke:none;" d="M2528 1718L2529 1719L2528 1718z"/>
<path style="fill:#6e6e6e; stroke:none;" d="M730 1719L731 1720L730 1719M732 1720L733 1721L732 1720M734 1721L735 1722L734 1721z"/>
<path style="fill:#8d8d8d; stroke:none;" d="M735 1722L736 1723L735 1722z"/>
<path style="fill:#6e6e6e; stroke:none;" d="M736 1722L737 1723L736 1722M737 1723L738 1724L737 1723M739 1724L740 1725L739 1724M741 1725L742 1726L741 1725M744 1727L745 1728L744 1727M749 1730L750 1731L749 1730M751 1731L752 1732L751 1731z"/>
<path style="fill:#484847; stroke:none;" d="M2506 1731L2507 1732L2506 1731z"/>
<path style="fill:#6e6e6e; stroke:none;" d="M752 1732L753 1733L752 1732M754 1733L755 1734L754 1733M756 1734L757 1735L756 1734z"/>
<path style="fill:#8d8d8d; stroke:none;" d="M757 1735L758 1736L757 1735z"/>
<path style="fill:#6e6e6e; stroke:none;" d="M758 1735L759 1736L758 1735M759 1736L760 1737L759 1736M761 1737L762 1738L761 1737M763 1738L764 1739L763 1738M766 1740L767 1741L766 1740M768 1741L769 1742L768 1741M771 1743L772 1744L771 1743M773 1744L774 1745L773 1744M774 1745L775 1746L774 1745M778 1747L779 1748L778 1747M780 1748L781 1749L780 1748M781 1749L782 1750L781 1749M783 1750L784 1751L783 1750M785 1751L786 1752L785 1751M786 1752L787 1753L786 1752M788 1753L789 1754L788 1753M790 1754L791 1755L790 1754M793 1756L794 1757L793 1756M795 1757L796 1758L795 1757M796 1758L797 1759L796 1758M798 1759L799 1760L798 1759M800 1760L801 1761L800 1760M802 1761L803 1762L802 1761M803 1762L804 1763L803 1762M805 1763L806 1764L805 1763z"/>
<path style="fill:#8d8d8d; stroke:none;" d="M806 1764L807 1765L806 1764z"/>
<path style="fill:#6e6e6e; stroke:none;" d="M807 1764L808 1765L807 1764M808 1765L809 1766L808 1765M810 1766L811 1767L810 1766M812 1767L813 1768L812 1767M813 1768L814 1769L813 1768M815 1769L816 1770L815 1769M817 1770L818 1771L817 1770M818 1771L819 1772L818 1771M820 1772L821 1773L820 1772M822 1773L823 1774L822 1773M824 1774L825 1775L824 1774M825 1775L826 1776L825 1775M827 1776L828 1777L827 1776z"/>
<path style="fill:#8d8d8d; stroke:none;" d="M828 1777L829 1778L828 1777z"/>
<path style="fill:#6e6e6e; stroke:none;" d="M829 1777L830 1778L829 1777M830 1778L831 1779L830 1778M832 1779L833 1780L832 1779M834 1780L835 1781L834 1780M835 1781L836 1782L835 1781M837 1782L838 1783L837 1782M839 1783L840 1784L839 1783M840 1784L841 1785L840 1784M842 1785L843 1786L842 1785M844 1786L845 1787L844 1786M846 1787L847 1788L846 1787M847 1788L848 1789L847 1788M849 1789L850 1790L849 1789z"/>
<path style="fill:#8d8d8d; stroke:none;" d="M850 1790L851 1791L850 1790z"/>
<path style="fill:#6e6e6e; stroke:none;" d="M851 1790L852 1791L851 1790M852 1791L853 1792L852 1791M854 1792L855 1793L854 1792M856 1793L857 1794L856 1793M857 1794L858 1795L857 1794M859 1795L860 1796L859 1795M861 1796L862 1797L861 1796M862 1797L863 1798L862 1797M864 1798L865 1799L864 1798M866 1799L867 1800L866 1799z"/>
<path style="fill:#484847; stroke:none;" d="M2391 1799L2392 1800L2391 1799z"/>
<path style="fill:#6e6e6e; stroke:none;" d="M868 1800L869 1801L868 1800M869 1801L870 1802L869 1801M871 1802L872 1803L871 1802z"/>
<path style="fill:#8d8d8d; stroke:none;" d="M872 1803L873 1804L872 1803z"/>
<path style="fill:#6e6e6e; stroke:none;" d="M873 1803L874 1804L873 1803M874 1804L875 1805L874 1804M876 1805L877 1806L876 1805M878 1806L879 1807L878 1806M881 1808L882 1809L881 1808M883 1809L884 1810L883 1809M884 1810L885 1811L884 1810M886 1811L887 1812L886 1811M888 1812L889 1813L888 1812z"/>
<path style="fill:#484847; stroke:none;" d="M2369 1812L2370 1813L2369 1812z"/>
<path style="fill:#6e6e6e; stroke:none;" d="M890 1813L891 1814L890 1813M891 1814L892 1815L891 1814M893 1815L894 1816L893 1815z"/>
<path style="fill:#8d8d8d; stroke:none;" d="M894 1816L895 1817L894 1816z"/>
<path style="fill:#6e6e6e; stroke:none;" d="M895 1816L896 1817L895 1816M896 1817L897 1818L896 1817M898 1818L899 1819L898 1818M900 1819L901 1820L900 1819M903 1821L904 1822L903 1821M905 1822L906 1823L905 1822M906 1823L907 1824L906 1823M908 1824L909 1825L908 1824M910 1825L911 1826L910 1825z"/>
<path style="fill:#484847; stroke:none;" d="M2347 1825L2348 1826L2347 1825z"/>
<path style="fill:#6e6e6e; stroke:none;" d="M911 1826L912 1827L911 1826M913 1827L914 1828L913 1827M915 1828L916 1829L915 1828z"/>
<path style="fill:#8d8d8d; stroke:none;" d="M916 1829L917 1830L916 1829z"/>
<path style="fill:#6e6e6e; stroke:none;" d="M917 1829L918 1830L917 1829M918 1830L919 1831L918 1830M920 1831L921 1832L920 1831M922 1832L923 1833L922 1832M925 1834L926 1835L925 1834M927 1835L928 1836L927 1835M928 1836L929 1837L928 1836M930 1837L931 1838L930 1837M932 1838L933 1839L932 1838z"/>
<path style="fill:#484847; stroke:none;" d="M2325 1838L2326 1839L2325 1838z"/>
<path style="fill:#6e6e6e; stroke:none;" d="M933 1839L934 1840L933 1839M935 1840L936 1841L935 1840M937 1841L938 1842L937 1841z"/>
<path style="fill:#8d8d8d; stroke:none;" d="M938 1842L939 1843L938 1842z"/>
<path style="fill:#6e6e6e; stroke:none;" d="M939 1842L940 1843L939 1842M940 1843L941 1844L940 1843M942 1844L943 1845L942 1844M944 1845L945 1846L944 1845M947 1847L948 1848L947 1847z"/>
<path style="fill:#8d8d8d; stroke:none;" d="M629 1848C633.566 1861.77 646.887 1875.21 655.291 1887C674.023 1913.29 692.56 1939.71 711.291 1966C773.436 2053.21 835.867 2140.27 897.28 2228C1062.51 2464.03 1230.97 2697.83 1397.42 2933C1448.67 3005.4 1500.18 3077.6 1551.42 3150C1576.3 3185.15 1605.7 3219.6 1627 3257L1628 3257L1628 2698L1628 2523L1628 2468L1629 2438C1545.73 2394.14 1466.16 2341.68 1385 2294.01C1222.77 2198.72 1061.23 2102.28 899 2006.99C839.911 1972.28 780.946 1937.35 722 1902.4C691.775 1884.48 661.259 1861.9 629 1848z"/>
<path style="fill:#484847; stroke:none;" d="M2628 1848C2384.03 1997.34 2134.32 2137.44 1889 2284.55C1825.28 2322.76 1760.71 2359.57 1697 2397.8C1680.72 2407.57 1664.3 2417.07 1648 2426.8C1642.94 2429.82 1632.04 2433.55 1629.6 2439.21C1627.54 2444 1629 2451.85 1629 2457L1629 2499L1629 2645L1629 3063L1629 3194C1629 3214.14 1632.67 3238.41 1628 3258C1637.59 3250.19 1643.91 3236.97 1651.15 3227C1667.48 3204.5 1683.26 3181.61 1699.43 3159C1753.65 3083.16 1807.2 3006.84 1861.42 2931C2037.58 2684.59 2211.27 2436.41 2387.43 2190C2448.04 2105.21 2509.59 2020.87 2568.66 1935C2583.25 1913.78 2598.45 1892.95 2613.42 1872C2617.55 1866.22 2628.62 1855.25 2628 1848z"/>
<path style="fill:#131313; stroke:none;" d="M629 1850L629 3072L1024 3072L1024 3258L1628 3258C1614.77 3230.15 1590.62 3204.14 1572.71 3179C1534.52 3125.41 1496.45 3071.72 1458.42 3018C1342.95 2854.86 1226.9 2692.14 1111.42 2529C1003.27 2376.2 894.576 2223.8 786.424 2071C751.479 2021.63 716.37 1972.37 681.424 1923C664.838 1899.57 649.441 1870.1 629 1850z"/>
<path style="fill:#6e6e6e; stroke:none;" d="M952 1850L953 1851L952 1850z"/>
<path style="fill:#131313; stroke:none;" d="M2628 1850L2387.43 2189L1922.58 2844L1731.58 3113L1661.28 3212L1629 3258L2048 3258L2048 3072L2629 3072L2629 2204L2629 1954L2629 1882L2628 1850z"/>
<path style="fill:#6e6e6e; stroke:none;" d="M954 1851L955 1852L954 1851z"/>
<path style="fill:#484847; stroke:none;" d="M2303 1851L2304 1852L2303 1851z"/>
<path style="fill:#6e6e6e; stroke:none;" d="M955 1852L956 1853L955 1852M957 1853L958 1854L957 1853M959 1854L960 1855L959 1854z"/>
<path style="fill:#8d8d8d; stroke:none;" d="M960 1855L961 1856L960 1855z"/>
<path style="fill:#6e6e6e; stroke:none;" d="M961 1855L962 1856L961 1855M962 1856L963 1857L962 1856M964 1857L965 1858L964 1857M966 1858L967 1859L966 1858M969 1860L970 1861L969 1860z"/>
<path style="fill:#ffffff; stroke:none;" d="M637 1861L638 1862L637 1861z"/>
<path style="fill:#6e6e6e; stroke:none;" d="M971 1861L972 1862L971 1861M974 1863L975 1864L974 1863M976 1864L977 1865L976 1864M977 1865L978 1866L977 1865M979 1866L980 1867L979 1866M981 1867L982 1868L981 1867M983 1868L984 1869L983 1868M984 1869L985 1870L984 1869M986 1870L987 1871L986 1870M988 1871L989 1872L988 1871M989 1872L990 1873L989 1872M991 1873L992 1874L991 1873M993 1874L994 1875L993 1874M994 1875L995 1876L994 1875M996 1876L997 1877L996 1876M998 1877L999 1878L998 1877M999 1878L1000 1879L999 1878M1001 1879L1002 1880L1001 1879M1003 1880L1004 1881L1003 1880M1005 1881L1006 1882L1005 1881M1006 1882L1007 1883L1006 1882M1008 1883L1009 1884L1008 1883z"/>
<path style="fill:#8d8d8d; stroke:none;" d="M1009 1884L1010 1885L1009 1884z"/>
<path style="fill:#6e6e6e; stroke:none;" d="M1010 1884L1011 1885L1010 1884M1011 1885L1012 1886L1011 1885M1013 1886L1014 1887L1013 1886M1015 1887L1016 1888L1015 1887M1016 1888L1017 1889L1016 1888M1018 1889L1019 1890L1018 1889M1020 1890L1021 1891L1020 1890M1021 1891L1022 1892L1021 1891z"/>
<path style="fill:#ffffff; stroke:none;" d="M659 1892L660 1893L659 1892z"/>
<path style="fill:#6e6e6e; stroke:none;" d="M1023 1892L1024 1893L1023 1892M1025 1893L1026 1894L1025 1893M1027 1894L1028 1895L1027 1894M1028 1895L1029 1896L1028 1895M1030 1896L1031 1897L1030 1896z"/>
<path style="fill:#8d8d8d; stroke:none;" d="M1031 1897L1032 1898L1031 1897z"/>
<path style="fill:#6e6e6e; stroke:none;" d="M1032 1897L1033 1898L1032 1897M1033 1898L1034 1899L1033 1898M1035 1899L1036 1900L1035 1899M1037 1900L1038 1901L1037 1900M1038 1901L1039 1902L1038 1901M1040 1902L1041 1903L1040 1902M1042 1903L1043 1904L1042 1903M1043 1904L1044 1905L1043 1904M1045 1905L1046 1906L1045 1905M1047 1906L1048 1907L1047 1906M1049 1907L1050 1908L1049 1907M1050 1908L1051 1909L1050 1908M1052 1909L1053 1910L1052 1909z"/>
<path style="fill:#8d8d8d; stroke:none;" d="M1053 1910L1054 1911L1053 1910z"/>
<path style="fill:#6e6e6e; stroke:none;" d="M1054 1910L1055 1911L1054 1910M1055 1911L1056 1912L1055 1911M1057 1912L1058 1913L1057 1912M1059 1913L1060 1914L1059 1913M1060 1914L1061 1915L1060 1914M1062 1915L1063 1916L1062 1915M1064 1916L1065 1917L1064 1916M1065 1917L1066 1918L1065 1917M1067 1918L1068 1919L1067 1918M1069 1919L1070 1920L1069 1919z"/>
<path style="fill:#484847; stroke:none;" d="M2188 1919L2189 1920L2188 1919z"/>
<path style="fill:#6e6e6e; stroke:none;" d="M1071 1920L1072 1921L1071 1920M1072 1921L1073 1922L1072 1921M1074 1922L1075 1923L1074 1922z"/>
<path style="fill:#ffffff; stroke:none;" d="M681 1923L682 1924L681 1923z"/>
<path style="fill:#8d8d8d; stroke:none;" d="M1075 1923L1076 1924L1075 1923z"/>
<path style="fill:#6e6e6e; stroke:none;" d="M1076 1923L1077 1924L1076 1923M1077 1924L1078 1925L1077 1924M1079 1925L1080 1926L1079 1925M1081 1926L1082 1927L1081 1926M1084 1928L1085 1929L1084 1928M1086 1929L1087 1930L1086 1929M1087 1930L1088 1931L1087 1930M1089 1931L1090 1932L1089 1931M1091 1932L1092 1933L1091 1932z"/>
<path style="fill:#484847; stroke:none;" d="M2166 1932L2167 1933L2166 1932z"/>
<path style="fill:#6e6e6e; stroke:none;" d="M1093 1933L1094 1934L1093 1933M1094 1934L1095 1935L1094 1934M1096 1935L1097 1936L1096 1935z"/>
<path style="fill:#8d8d8d; stroke:none;" d="M1097 1936L1098 1937L1097 1936z"/>
<path style="fill:#6e6e6e; stroke:none;" d="M1098 1936L1099 1937L1098 1936M1099 1937L1100 1938L1099 1937M1101 1938L1102 1939L1101 1938M1103 1939L1104 1940L1103 1939M1106 1941L1107 1942L1106 1941z"/>
<path style="fill:#ffffff; stroke:none;" d="M789 1942L790 1943L789 1942z"/>
<path style="fill:#6e6e6e; stroke:none;" d="M1108 1942L1109 1943L1108 1942M1109 1943L1110 1944L1109 1943M1111 1944L1112 1945L1111 1944M1113 1945L1114 1946L1113 1945z"/>
<path style="fill:#484847; stroke:none;" d="M2144 1945L2145 1946L2144 1945z"/>
<path style="fill:#6e6e6e; stroke:none;" d="M1114 1946L1115 1947L1114 1946M1116 1947L1117 1948L1116 1947M1118 1948L1119 1949L1118 1948z"/>
<path style="fill:#8d8d8d; stroke:none;" d="M1119 1949L1120 1950L1119 1949z"/>
<path style="fill:#6e6e6e; stroke:none;" d="M1120 1949L1121 1950L1120 1949M1121 1950L1122 1951L1121 1950M1123 1951L1124 1952L1123 1951M1125 1952L1126 1953L1125 1952z"/>
<path style="fill:#ffffff; stroke:none;" d="M703 1954L704 1955L703 1954z"/>
<path style="fill:#6e6e6e; stroke:none;" d="M1128 1954L1129 1955L1128 1954z"/>
<path style="fill:#ffffff; stroke:none;" d="M811 1955L812 1956L811 1955z"/>
<path style="fill:#6e6e6e; stroke:none;" d="M1130 1955L1131 1956L1130 1955M1131 1956L1132 1957L1131 1956M1133 1957L1134 1958L1133 1957M1135 1958L1136 1959L1135 1958z"/>
<path style="fill:#484847; stroke:none;" d="M2122 1958L2123 1959L2122 1958z"/>
<path style="fill:#6e6e6e; stroke:none;" d="M1136 1959L1137 1960L1136 1959M1138 1960L1139 1961L1138 1960M1140 1961L1141 1962L1140 1961z"/>
<path style="fill:#8d8d8d; stroke:none;" d="M1141 1962L1142 1963L1141 1962z"/>
<path style="fill:#6e6e6e; stroke:none;" d="M1142 1962L1143 1963L1142 1962M1143 1963L1144 1964L1143 1963M1145 1964L1146 1965L1145 1964M1147 1965L1148 1966L1147 1965M1150 1967L1151 1968L1150 1967z"/>
<path style="fill:#ffffff; stroke:none;" d="M833 1968L834 1969L833 1968z"/>
<path style="fill:#6e6e6e; stroke:none;" d="M1152 1968L1153 1969L1152 1968M1155 1970L1156 1971L1155 1970M1157 1971L1158 1972L1157 1971z"/>
<path style="fill:#484847; stroke:none;" d="M2100 1971L2101 1972L2100 1971z"/>
<path style="fill:#6e6e6e; stroke:none;" d="M1158 1972L1159 1973L1158 1972M1160 1973L1161 1974L1160 1973M1162 1974L1163 1975L1162 1974z"/>
<path style="fill:#8d8d8d; stroke:none;" d="M1163 1975L1164 1976L1163 1975z"/>
<path style="fill:#6e6e6e; stroke:none;" d="M1164 1975L1165 1976L1164 1975M1165 1976L1166 1977L1165 1976M1167 1977L1168 1978L1167 1977M1169 1978L1170 1979L1169 1978M1172 1980L1173 1981L1172 1980z"/>
<path style="fill:#ffffff; stroke:none;" d="M855 1981L856 1982L855 1981z"/>
<path style="fill:#6e6e6e; stroke:none;" d="M1174 1981L1175 1982L1174 1981M1177 1983L1178 1984L1177 1983M1179 1984L1180 1985L1179 1984z"/>
<path style="fill:#ffffff; stroke:none;" d="M725 1985L726 1986L725 1985z"/>
<path style="fill:#6e6e6e; stroke:none;" d="M1180 1985L1181 1986L1180 1985M1182 1986L1183 1987L1182 1986M1184 1987L1185 1988L1184 1987M1186 1988L1187 1989L1186 1988M1187 1989L1188 1990L1187 1989M1189 1990L1190 1991L1189 1990M1191 1991L1192 1992L1191 1991M1192 1992L1193 1993L1192 1992M1194 1993L1195 1994L1194 1993z"/>
<path style="fill:#ffffff; stroke:none;" d="M877 1994L878 1995L877 1994z"/>
<path style="fill:#6e6e6e; stroke:none;" d="M1196 1994L1197 1995L1196 1994M1197 1995L1198 1996L1197 1995M1199 1996L1200 1997L1199 1996M1201 1997L1202 1998L1201 1997M1202 1998L1203 1999L1202 1998M1204 1999L1205 2000L1204 1999M1206 2000L1207 2001L1206 2000M1208 2001L1209 2002L1208 2001M1209 2002L1210 2003L1209 2002M1211 2003L1212 2004L1211 2003z"/>
<path style="fill:#8d8d8d; stroke:none;" d="M1212 2004L1213 2005L1212 2004z"/>
<path style="fill:#6e6e6e; stroke:none;" d="M1213 2004L1214 2005L1213 2004M1214 2005L1215 2006L1214 2005M1216 2006L1217 2007L1216 2006z"/>
<path style="fill:#ffffff; stroke:none;" d="M899 2007L900 2008L899 2007z"/>
<path style="fill:#6e6e6e; stroke:none;" d="M1218 2007L1219 2008L1218 2007M1219 2008L1220 2009L1219 2008z"/>
<path style="fill:#ffffff; stroke:none;" d="M742 2009L743 2010L742 2009z"/>
<path style="fill:#6e6e6e; stroke:none;" d="M1221 2009L1222 2010L1221 2009M1223 2010L1224 2011L1223 2010M1224 2011L1225 2012L1224 2011M1226 2012L1227 2013L1226 2012M1228 2013L1229 2014L1228 2013M1230 2014L1231 2015L1230 2014M1231 2015L1232 2016L1231 2015z"/>
<path style="fill:#ffffff; stroke:none;" d="M747 2016L748 2017L747 2016z"/>
<path style="fill:#6e6e6e; stroke:none;" d="M1233 2016L1234 2017L1233 2016z"/>
<path style="fill:#8d8d8d; stroke:none;" d="M1234 2017L1235 2018L1234 2017z"/>
<path style="fill:#6e6e6e; stroke:none;" d="M1235 2017L1236 2018L1235 2017M1236 2018L1237 2019L1236 2018M1238 2019L1239 2020L1238 2019z"/>
<path style="fill:#ffffff; stroke:none;" d="M921 2020L922 2021L921 2020z"/>
<path style="fill:#6e6e6e; stroke:none;" d="M1240 2020L1241 2021L1240 2020M1241 2021L1242 2022L1241 2021M1243 2022L1244 2023L1243 2022M1245 2023L1246 2024L1245 2023M1246 2024L1247 2025L1246 2024M1248 2025L1249 2026L1248 2025M1250 2026L1251 2027L1250 2026M1252 2027L1253 2028L1252 2027M1253 2028L1254 2029L1253 2028M1255 2029L1256 2030L1255 2029z"/>
<path style="fill:#8d8d8d; stroke:none;" d="M1256 2030L1257 2031L1256 2030z"/>
<path style="fill:#6e6e6e; stroke:none;" d="M1257 2030L1258 2031L1257 2030M1258 2031L1259 2032L1258 2031M1260 2032L1261 2033L1260 2032z"/>
<path style="fill:#ffffff; stroke:none;" d="M943 2033L944 2034L943 2033z"/>
<path style="fill:#6e6e6e; stroke:none;" d="M1262 2033L1263 2034L1262 2033M1263 2034L1264 2035L1263 2034M1265 2035L1266 2036L1265 2035M1267 2036L1268 2037L1267 2036M1268 2037L1269 2038L1268 2037M1270 2038L1271 2039L1270 2038M1272 2039L1273 2040L1272 2039z"/>
<path style="fill:#484847; stroke:none;" d="M1985 2039L1986 2040L1985 2039z"/>
<path style="fill:#ffffff; stroke:none;" d="M764 2040L765 2041L764 2040z"/>
<path style="fill:#6e6e6e; stroke:none;" d="M1274 2040L1275 2041L1274 2040M1275 2041L1276 2042L1275 2041M1277 2042L1278 2043L1277 2042z"/>
<path style="fill:#8d8d8d; stroke:none;" d="M1278 2043L1279 2044L1278 2043z"/>
<path style="fill:#6e6e6e; stroke:none;" d="M1279 2043L1280 2044L1279 2043M1280 2044L1281 2045L1280 2044M1282 2045L1283 2046L1282 2045z"/>
<path style="fill:#ffffff; stroke:none;" d="M965 2046L966 2047L965 2046z"/>
<path style="fill:#6e6e6e; stroke:none;" d="M1284 2046L1285 2047L1284 2046M1287 2048L1288 2049L1287 2048M1289 2049L1290 2050L1289 2049M1290 2050L1291 2051L1290 2050M1292 2051L1293 2052L1292 2051M1294 2052L1295 2053L1294 2052z"/>
<path style="fill:#484847; stroke:none;" d="M1963 2052L1964 2053L1963 2052z"/>
<path style="fill:#6e6e6e; stroke:none;" d="M1296 2053L1297 2054L1296 2053M1297 2054L1298 2055L1297 2054M1299 2055L1300 2056L1299 2055z"/>
<path style="fill:#8d8d8d; stroke:none;" d="M1300 2056L1301 2057L1300 2056z"/>
<path style="fill:#6e6e6e; stroke:none;" d="M1301 2056L1302 2057L1301 2056M1302 2057L1303 2058L1302 2057M1304 2058L1305 2059L1304 2058z"/>
<path style="fill:#ffffff; stroke:none;" d="M987 2059L988 2060L987 2059z"/>
<path style="fill:#6e6e6e; stroke:none;" d="M1306 2059L1307 2060L1306 2059M1309 2061L1310 2062L1309 2061M1311 2062L1312 2063L1311 2062M1312 2063L1313 2064L1312 2063M1314 2064L1315 2065L1314 2064M1316 2065L1317 2066L1316 2065z"/>
<path style="fill:#484847; stroke:none;" d="M1941 2065L1942 2066L1941 2065z"/>
<path style="fill:#6e6e6e; stroke:none;" d="M1317 2066L1318 2067L1317 2066M1319 2067L1320 2068L1319 2067M1321 2068L1322 2069L1321 2068z"/>
<path style="fill:#8d8d8d; stroke:none;" d="M1322 2069L1323 2070L1322 2069z"/>
<path style="fill:#6e6e6e; stroke:none;" d="M1323 2069L1324 2070L1323 2069M1324 2070L1325 2071L1324 2070z"/>
<path style="fill:#ffffff; stroke:none;" d="M786 2071L787 2072L786 2071z"/>
<path style="fill:#6e6e6e; stroke:none;" d="M1326 2071L1327 2072L1326 2071z"/>
<path style="fill:#ffffff; stroke:none;" d="M1009 2072L1010 2073L1009 2072z"/>
<path style="fill:#6e6e6e; stroke:none;" d="M1328 2072L1329 2073L1328 2072M1331 2074L1332 2075L1331 2074M1333 2075L1334 2076L1333 2075M1334 2076L1335 2077L1334 2076M1336 2077L1337 2078L1336 2077M1338 2078L1339 2079L1338 2078z"/>
<path style="fill:#484847; stroke:none;" d="M1919 2078L1920 2079L1919 2078z"/>
<path style="fill:#6e6e6e; stroke:none;" d="M1339 2079L1340 2080L1339 2079M1341 2080L1342 2081L1341 2080M1343 2081L1344 2082L1343 2081z"/>
<path style="fill:#8d8d8d; stroke:none;" d="M1344 2082L1345 2083L1344 2082z"/>
<path style="fill:#6e6e6e; stroke:none;" d="M1345 2082L1346 2083L1345 2082M1346 2083L1347 2084L1346 2083M1348 2084L1349 2085L1348 2084z"/>
<path style="fill:#ffffff; stroke:none;" d="M1031 2085L1032 2086L1031 2085z"/>
<path style="fill:#6e6e6e; stroke:none;" d="M1350 2085L1351 2086L1350 2085M1353 2087L1354 2088L1353 2087M1355 2088L1356 2089L1355 2088M1358 2090L1359 2091L1358 2090M1360 2091L1361 2092L1360 2091z"/>
<path style="fill:#484847; stroke:none;" d="M1897 2091L1898 2092L1897 2091z"/>
<path style="fill:#6e6e6e; stroke:none;" d="M1361 2092L1362 2093L1361 2092M1363 2093L1364 2094L1363 2093M1365 2094L1366 2095L1365 2094M1367 2095L1368 2096L1367 2095M1368 2096L1369 2097L1368 2096M1370 2097L1371 2098L1370 2097z"/>
<path style="fill:#ffffff; stroke:none;" d="M1053 2098L1054 2099L1053 2098z"/>
<path style="fill:#6e6e6e; stroke:none;" d="M1372 2098L1373 2099L1372 2098M1373 2099L1374 2100L1373 2099M1375 2100L1376 2101L1375 2100M1377 2101L1378 2102L1377 2101z"/>
<path style="fill:#ffffff; stroke:none;" d="M808 2102L809 2103L808 2102z"/>
<path style="fill:#6e6e6e; stroke:none;" d="M1380 2103L1381 2104L1380 2103M1382 2104L1383 2105L1382 2104M1383 2105L1384 2106L1383 2105M1385 2106L1386 2107L1385 2106M1387 2107L1388 2108L1387 2107M1389 2108L1390 2109L1389 2108M1390 2109L1391 2110L1390 2109M1392 2110L1393 2111L1392 2110z"/>
<path style="fill:#ffffff; stroke:none;" d="M1075 2111L1076 2112L1075 2111z"/>
<path style="fill:#6e6e6e; stroke:none;" d="M1394 2111L1395 2112L1394 2111M1395 2112L1396 2113L1395 2112M1397 2113L1398 2114L1397 2113M1399 2114L1400 2115L1399 2114M1400 2115L1401 2116L1400 2115M1402 2116L1403 2117L1402 2116M1404 2117L1405 2118L1404 2117M1405 2118L1406 2119L1405 2118M1407 2119L1408 2120L1407 2119M1409 2120L1410 2121L1409 2120M1411 2121L1412 2122L1411 2121M1412 2122L1413 2123L1412 2122M1414 2123L1415 2124L1414 2123z"/>
<path style="fill:#ffffff; stroke:none;" d="M1097 2124L1098 2125L1097 2124z"/>
<path style="fill:#8d8d8d; stroke:none;" d="M1415 2124L1416 2125L1415 2124z"/>
<path style="fill:#6e6e6e; stroke:none;" d="M1416 2124L1417 2125L1416 2124M1417 2125L1418 2126L1417 2125M1419 2126L1420 2127L1419 2126M1421 2127L1422 2128L1421 2127M1422 2128L1423 2129L1422 2128M1424 2129L1425 2130L1424 2129M1426 2130L1427 2131L1426 2130M1427 2131L1428 2132L1427 2131M1429 2132L1430 2133L1429 2132z"/>
<path style="fill:#ffffff; stroke:none;" d="M830 2133L831 2134L830 2133z"/>
<path style="fill:#6e6e6e; stroke:none;" d="M1431 2133L1432 2134L1431 2133M1433 2134L1434 2135L1433 2134M1434 2135L1435 2136L1434 2135M1436 2136L1437 2137L1436 2136z"/>
<path style="fill:#ffffff; stroke:none;" d="M1119 2137L1120 2138L1119 2137z"/>
<path style="fill:#8d8d8d; stroke:none;" d="M1437 2137L1438 2138L1437 2137z"/>
<path style="fill:#6e6e6e; stroke:none;" d="M1438 2137L1439 2138L1438 2137M1439 2138L1440 2139L1439 2138M1441 2139L1442 2140L1441 2139M1443 2140L1444 2141L1443 2140M1444 2141L1445 2142L1444 2141M1446 2142L1447 2143L1446 2142M1448 2143L1449 2144L1448 2143M1449 2144L1450 2145L1449 2144M1451 2145L1452 2146L1451 2145M1453 2146L1454 2147L1453 2146M1455 2147L1456 2148L1455 2147M1456 2148L1457 2149L1456 2148M1458 2149L1459 2150L1458 2149z"/>
<path style="fill:#ffffff; stroke:none;" d="M1141 2150L1142 2151L1141 2150z"/>
<path style="fill:#8d8d8d; stroke:none;" d="M1459 2150L1460 2151L1459 2150z"/>
<path style="fill:#6e6e6e; stroke:none;" d="M1460 2150L1461 2151L1460 2150M1461 2151L1462 2152L1461 2151M1463 2152L1464 2153L1463 2152M1465 2153L1466 2154L1465 2153M1466 2154L1467 2155L1466 2154M1468 2155L1469 2156L1468 2155M1470 2156L1471 2157L1470 2156M1471 2157L1472 2158L1471 2157M1473 2158L1474 2159L1473 2158M1475 2159L1476 2160L1475 2159z"/>
<path style="fill:#484847; stroke:none;" d="M1782 2159L1783 2160L1782 2159z"/>
<path style="fill:#6e6e6e; stroke:none;" d="M1477 2160L1478 2161L1477 2160M1478 2161L1479 2162L1478 2161M1480 2162L1481 2163L1480 2162z"/>
<path style="fill:#ffffff; stroke:none;" d="M1163 2163L1164 2164L1163 2163z"/>
<path style="fill:#8d8d8d; stroke:none;" d="M1481 2163L1482 2164L1481 2163z"/>
<path style="fill:#6e6e6e; stroke:none;" d="M1482 2163L1483 2164L1482 2163z"/>
<path style="fill:#ffffff; stroke:none;" d="M852 2164L853 2165L852 2164z"/>
<path style="fill:#6e6e6e; stroke:none;" d="M1483 2164L1484 2165L1483 2164M1485 2165L1486 2166L1485 2165M1487 2166L1488 2167L1487 2166M1490 2168L1491 2169L1490 2168M1492 2169L1493 2170L1492 2169M1493 2170L1494 2171L1493 2170M1495 2171L1496 2172L1495 2171M1497 2172L1498 2173L1497 2172z"/>
<path style="fill:#484847; stroke:none;" d="M1760 2172L1761 2173L1760 2172z"/>
<path style="fill:#6e6e6e; stroke:none;" d="M1498 2173L1499 2174L1498 2173M1500 2174L1501 2175L1500 2174M1502 2175L1503 2176L1502 2175z"/>
<path style="fill:#8d8d8d; stroke:none;" d="M1503 2176L1504 2177L1503 2176z"/>
<path style="fill:#6e6e6e; stroke:none;" d="M1504 2176L1505 2177L1504 2176M1505 2177L1506 2178L1505 2177M1507 2178L1508 2179L1507 2178M1509 2179L1510 2180L1509 2179M1512 2181L1513 2182L1512 2181M1514 2182L1515 2183L1514 2182M1515 2183L1516 2184L1515 2183M1517 2184L1518 2185L1517 2184M1519 2185L1520 2186L1519 2185z"/>
<path style="fill:#484847; stroke:none;" d="M1738 2185L1739 2186L1738 2185z"/>
<path style="fill:#6e6e6e; stroke:none;" d="M1520 2186L1521 2187L1520 2186M1522 2187L1523 2188L1522 2187M1524 2188L1525 2189L1524 2188z"/>
<path style="fill:#8d8d8d; stroke:none;" d="M1525 2189L1526 2190L1525 2189z"/>
<path style="fill:#6e6e6e; stroke:none;" d="M1526 2189L1527 2190L1526 2189M1527 2190L1528 2191L1527 2190M1529 2191L1530 2192L1529 2191M1531 2192L1532 2193L1531 2192M1534 2194L1535 2195L1534 2194z"/>
<path style="fill:#ffffff; stroke:none;" d="M874 2195L875 2196L874 2195z"/>
<path style="fill:#6e6e6e; stroke:none;" d="M1536 2195L1537 2196L1536 2195M1537 2196L1538 2197L1537 2196M1539 2197L1540 2198L1539 2197M1541 2198L1542 2199L1541 2198z"/>
<path style="fill:#484847; stroke:none;" d="M1716 2198L1717 2199L1716 2198z"/>
<path style="fill:#6e6e6e; stroke:none;" d="M1542 2199L1543 2200L1542 2199M1544 2200L1545 2201L1544 2200M1546 2201L1547 2202L1546 2201z"/>
<path style="fill:#8d8d8d; stroke:none;" d="M1547 2202L1548 2203L1547 2202z"/>
<path style="fill:#6e6e6e; stroke:none;" d="M1548 2202L1549 2203L1548 2202M1549 2203L1550 2204L1549 2203M1551 2204L1552 2205L1551 2204M1553 2205L1554 2206L1553 2205M1556 2207L1557 2208L1556 2207M1558 2208L1559 2209L1558 2208M1561 2210L1562 2211L1561 2210M1563 2211L1564 2212L1563 2211z"/>
<path style="fill:#484847; stroke:none;" d="M1694 2211L1695 2212L1694 2211z"/>
<path style="fill:#6e6e6e; stroke:none;" d="M1564 2212L1565 2213L1564 2212M1566 2213L1567 2214L1566 2213M1568 2214L1569 2215L1568 2214M1570 2215L1571 2216L1570 2215M1571 2216L1572 2217L1571 2216M1573 2217L1574 2218L1573 2217M1575 2218L1576 2219L1575 2218M1576 2219L1577 2220L1576 2219M1578 2220L1579 2221L1578 2220M1580 2221L1581 2222L1580 2221M1581 2222L1582 2223L1581 2222M1583 2223L1584 2224L1583 2223M1585 2224L1586 2225L1585 2224M1586 2225L1587 2226L1586 2225z"/>
<path style="fill:#ffffff; stroke:none;" d="M896 2226L897 2227L896 2226z"/>
<path style="fill:#6e6e6e; stroke:none;" d="M1588 2226L1589 2227L1588 2226M1590 2227L1591 2228L1590 2227M1592 2228L1593 2229L1592 2228M1593 2229L1594 2230L1593 2229M1595 2230L1596 2231L1595 2230z"/>
<path style="fill:#ffffff; stroke:none;" d="M1596 2231L1597 2232L1596 2231z"/>
<path style="fill:#6e6e6e; stroke:none;" d="M1597 2231L1598 2232L1597 2231M1598 2232L1599 2233L1598 2232M1600 2233L1601 2234L1600 2233M1602 2234L1603 2235L1602 2234M1603 2235L1604 2236L1603 2235M1605 2236L1606 2237L1605 2236M1607 2237L1608 2238L1607 2237M1608 2238L1609 2239L1608 2238M1610 2239L1611 2240L1610 2239M1612 2240L1613 2241L1612 2240M1614 2241L1615 2242L1614 2241M1615 2242L1616 2243L1615 2242M1617 2243L1618 2244L1617 2243z"/>
<path style="fill:#8d8d8d; stroke:none;" d="M1618 2244L1619 2245L1618 2244z"/>
<path style="fill:#6e6e6e; stroke:none;" d="M1619 2244L1620 2245L1619 2244M1620 2245L1621 2246L1620 2245M1622 2246L1623 2247L1622 2246M1624 2247L1625 2248L1624 2247M1625 2248L1626 2249L1625 2248M1627 2249L1628 2250L1627 2249z"/>
<path style="fill:#ffffff; stroke:none;" d="M918 2257L919 2258L918 2257M940 2288L941 2289L940 2288M1378 2290L1379 2291L1378 2290M1400 2303L1401 2304L1400 2303M1422 2316L1423 2317L1422 2316M962 2319L963 2320L962 2319M1444 2329L1445 2330L1444 2329M1466 2342L1467 2343L1466 2342M984 2350L985 2351L984 2350M1488 2355L1489 2356L1488 2355M1510 2368L1511 2369L1510 2368M1006 2381L1007 2382L1006 2381M1532 2381L1533 2382L1532 2381M1554 2394L1555 2395L1554 2394M1576 2407L1577 2408L1576 2407M1028 2412L1029 2413L1028 2412M1598 2420L1599 2421L1598 2420M1620 2433L1621 2434L1620 2433M1045 2436L1046 2437L1045 2436z"/>
<path style="fill:#6e6e6e; stroke:none;" d="M1628 2439L1628 3257L1629 3257L1629 2677L1629 2509L1629 2461L1628 2439z"/>
<path style="fill:#ffffff; stroke:none;" d="M1050 2443L1051 2444L1050 2443M1067 2467L1068 2468L1067 2467M1089 2498L1090 2499L1089 2498M1111 2529L1112 2530L1111 2529M1133 2560L1134 2561L1133 2560M1155 2591L1156 2592L1155 2591M1177 2622L1178 2623L1177 2622M1199 2653L1200 2654L1199 2653M1221 2684L1222 2685L1221 2684M1243 2715L1244 2716L1243 2715M1265 2746L1266 2747L1265 2746M1287 2777L1288 2778L1287 2777M1309 2808L1310 2809L1309 2808M1326 2832L1327 2833L1326 2832M1331 2839L1332 2840L1331 2839M1348 2863L1349 2864L1348 2863M1370 2894L1371 2895L1370 2894M1392 2925L1393 2926L1392 2925M1414 2956L1415 2957L1414 2956M1436 2987L1437 2988L1436 2987M1458 3018L1459 3019L1458 3018M1480 3049L1481 3050L1480 3049M1502 3080L1503 3081L1502 3080M1524 3111L1525 3112L1524 3111M1546 3142L1547 3143L1546 3142M1568 3173L1569 3174L1568 3173M1590 3204L1591 3205L1590 3204M1612 3235L1613 3236L1612 3235z"/>
</svg>
